<?xml version="1.0" standalone="no"?>
<!DOCTYPE svg PUBLIC "-//W3C//DTD SVG 20010904//EN"
 "http://www.w3.org/TR/2001/REC-SVG-20010904/DTD/svg10.dtd">
<svg version="1.0" xmlns="http://www.w3.org/2000/svg"
 width="616.000000pt" height="616.000000pt" viewBox="0 0 616.000000 616.000000"
 preserveAspectRatio="xMidYMid meet">
<metadata>
Created by potrace 1.14, written by Peter Selinger 2001-2017
</metadata>
<g transform="translate(0.000000,616.000000) scale(0.100000,-0.100000)"
fill="#000000" stroke="none">
<path d="M3740 5600 c-273 -29 -531 -130 -757 -299 l-33 -24 -98 51 c-180 94
-400 152 -577 152 -382 0 -733 -210 -897 -535 -31 -60 -45 -113 -98 -355 -45
-206 -65 -254 -177 -424 -176 -265 -416 -516 -652 -681 -290 -203 -436 -592
-352 -938 71 -296 269 -584 541 -788 431 -323 815 -459 1502 -534 l148 -16
112 -80 c120 -86 285 -172 409 -213 251 -83 576 -72 859 29 104 38 250 115
347 185 72 51 92 61 165 75 355 71 652 171 938 316 241 122 444 268 587 424
77 83 208 278 263 391 105 213 112 458 18 662 -64 140 -179 274 -303 354 -168
108 -326 343 -414 617 -44 136 -53 232 -45 466 8 239 1 274 -81 440 -214 430
-669 705 -1205 728 -63 3 -153 2 -200 -3z m-1475 -842 c71 -167 346 -763 410
-888 l26 -52 31 46 c16 25 34 48 39 52 5 3 9 -51 9 -129 l0 -134 46 -97 c25
-53 47 -96 49 -96 1 0 38 44 81 98 93 116 235 281 357 415 l90 98 32 -58 c17
-32 92 -170 165 -308 73 -137 270 -497 437 -799 240 -431 302 -550 292 -558
-54 -37 209 76 300 130 l63 37 74 145 c113 222 174 433 190 653 8 114 -3 111
137 41 271 -135 443 -308 493 -498 19 -70 18 -210 -2 -277 -89 -304 -457 -590
-999 -776 -176 -60 -445 -124 -695 -163 -127 -20 -442 -32 -846 -32 -237 0
-446 3 -465 6 -19 4 -99 10 -179 15 -279 18 -651 100 -950 210 -121 45 -350
160 -455 230 -232 153 -387 332 -439 510 -20 67 -21 207 -2 277 66 250 319
451 749 599 l149 51 360 717 c198 394 364 717 368 717 3 0 42 -82 85 -182z
m2199 -827 c107 -60 156 -119 156 -190 0 -39 -34 -71 -74 -71 -54 0 -86 46
-136 201 -17 50 -30 93 -30 95 0 9 15 2 84 -35z m-435 -155 c59 -56 81 -97 81
-151 0 -47 -36 -85 -82 -85 -78 0 -109 68 -100 218 5 89 5 91 26 80 11 -6 45
-34 75 -62z m420 -636 c44 -61 46 -68 46 -131 0 -58 -4 -71 -24 -93 -45 -48
-120 -27 -137 39 -7 30 -2 96 17 207 13 75 14 77 32 60 11 -9 40 -46 66 -82z"/>
</g>
</svg>
